<?xml version="1.0" encoding="UTF-8"?>
<svg id="Layer_1" data-name="Layer 1" xmlns="http://www.w3.org/2000/svg" width="517.28" height="369.14" viewBox="0 0 517.28 369.14">
  <g>
    <path d="M291.66,204.09c-5.32,0-7.36-1.82-8.55-3.4-1.6-2.13-3.5-6.59-3.5-15.74,0-7.23,1.23-12.68,3.54-15.75,1.22-1.61,3.29-3.46,8.63-3.46,4.47,0,11.94,0,11.94,19.2s-7.55,19.15-12.06,19.15Z"/>
    <path d="M291.78,175.24c.49,0,.86.03,1.13.06.52,1.21,1.31,4.21,1.31,9.64s-.8,8.39-1.31,9.57c-.28.04-.69.07-1.24.07s-.92-.03-1.2-.07c-.45-1-1.36-3.75-1.36-9.58s.96-8.7,1.4-9.63c.28-.04.69-.08,1.27-.08M291.78,156.24c-7.17,0-12.57,2.41-16.21,7.23-3.64,4.82-5.46,11.98-5.46,21.47s1.8,16.64,5.4,21.44c3.6,4.8,8.99,7.21,16.15,7.21,14.37,0,21.56-9.55,21.56-28.65s-7.15-28.7-21.44-28.7h0Z"/>
  </g>
  <g>
    <path d="M258.64,299.76c-63.52,0-115.19-51.67-115.19-115.19s51.67-115.19,115.19-115.19,115.19,51.67,115.19,115.19-51.67,115.19-115.19,115.19ZM250.93,219.09c1.15,1.67,2.41,3.24,3.77,4.71,8.81,9.55,21.25,14.39,36.96,14.39s28.15-4.84,36.96-14.39c8.61-9.33,12.98-22.41,12.98-38.87s-4.33-29.56-12.88-38.85c-8.76-9.52-21.19-14.34-36.95-14.34s-28.17,4.77-37,14.19c-8.67,9.24-13.06,22.33-13.06,38.89,0,6.68.71,12.79,2.13,18.33h-27.38v-70.08h-37.01v103.95h71.47v-17.94Z"/>
    <path d="M258.64,78.88c58.28,0,105.69,47.41,105.69,105.69s-47.41,105.69-105.69,105.69c-35.15,0-66.35-17.25-85.58-43.73h87.36v-6.23c8.78,4.91,19.23,7.39,31.23,7.39,18.47,0,33.26-5.87,43.94-17.44,10.28-11.14,15.5-26.39,15.5-45.31s-5.18-34.19-15.39-45.29c-10.63-11.55-25.41-17.41-43.93-17.41s-33.23,5.78-43.93,17.19c-10.37,11.06-15.63,26.33-15.63,45.39,0,3.04.13,5.98.4,8.83h-6.65v-70.08h-53.61c19.16-27.03,50.7-44.7,86.28-44.7M169.96,127.13v114.89c-10.76-16.55-17.01-36.28-17.01-57.44s6.25-40.89,17.01-57.44M258.64,59.88c-68.87,0-124.69,55.83-124.69,124.69s55.83,124.69,124.69,124.69,124.69-55.83,124.69-124.69-55.83-124.69-124.69-124.69h0ZM291.66,228.69c-13.02,0-23.01-3.78-29.98-11.33-6.97-7.55-10.46-18.4-10.46-32.54s3.5-24.94,10.49-32.39c6.99-7.46,17.02-11.19,30.07-11.19s23.04,3.76,29.95,11.27c6.91,7.52,10.37,18.32,10.37,32.42s-3.49,24.87-10.46,32.42c-6.97,7.55-16.97,11.33-29.98,11.33h0ZM188.96,227.53v-84.95h18.01v70.08h34.46v14.88h-52.47Z"/>
  </g>
  <path d="M291.66,213.59c-7.17,0-12.55-2.4-16.15-7.21-3.6-4.8-5.4-11.95-5.4-21.44s1.82-16.65,5.46-21.47c3.64-4.82,9.04-7.23,16.21-7.23,14.29,0,21.44,9.57,21.44,28.7s-7.19,28.65-21.56,28.65Z"/>
</svg>